<svg version="1.1" xmlns="http://www.w3.org/2000/svg" viewBox="0 0 2587.1747389716784 1996.4249594343146" width="2587.1747389716784" height="1996.4249594343146" filter="invert(93%) hue-rotate(180deg)">
  <!-- svg-source:excalidraw -->
  
  <defs>
    <style class="style-fonts">
      @font-face {
        font-family: "Virgil";
        src: url("https://excalidraw.com/Virgil.woff2");
      }
      @font-face {
        font-family: "Cascadia";
        src: url("https://excalidraw.com/Cascadia.woff2");
      }
    </style>
  </defs>
  <g stroke-linecap="round" transform="translate(627.4618022879501 250.2196223060655) rotate(0 493.978281800853 406.14323573557067)"><path d="M32 0 M32 0 C352.06 0, 672.12 0, 955.96 0 M32 0 C302.27 0, 572.53 0, 955.96 0 M955.96 0 C977.29 0, 987.96 10.67, 987.96 32 M955.96 0 C977.29 0, 987.96 10.67, 987.96 32 M987.96 32 C987.96 318.36, 987.96 604.72, 987.96 780.29 M987.96 32 C987.96 256.35, 987.96 480.7, 987.96 780.29 M987.96 780.29 C987.96 801.62, 977.29 812.29, 955.96 812.29 M987.96 780.29 C987.96 801.62, 977.29 812.29, 955.96 812.29 M955.96 812.29 C741.59 812.29, 527.22 812.29, 32 812.29 M955.96 812.29 C725.46 812.29, 494.97 812.29, 32 812.29 M32 812.29 C10.67 812.29, 0 801.62, 0 780.29 M32 812.29 C10.67 812.29, 0 801.62, 0 780.29 M0 780.29 C0 592.05, 0 403.81, 0 32 M0 780.29 C0 615.15, 0 450.02, 0 32 M0 32 C0 10.67, 10.67 0, 32 0 M0 32 C0 10.67, 10.67 0, 32 0" stroke="#1864ab" stroke-width="4" fill="none"></path></g><g stroke-linecap="round" transform="translate(1028.429059314659 1413.614284887386) rotate(0 154.64971631568733 135.1308401004353)"><path d="M32 0 M32 0 C91.1 -0.58, 153.99 1.12, 277.3 0 M32 0 C124.99 -2.73, 218.08 -2.32, 277.3 0 M277.3 0 C299.3 -3.53, 313 8.42, 309.3 32 M277.3 0 C294.2 -4.2, 305.62 7.24, 309.3 32 M309.3 32 C308.62 80.62, 304.04 129.12, 309.3 238.26 M309.3 32 C313.78 111.73, 311.77 189.25, 309.3 238.26 M309.3 238.26 C313.16 262.62, 301.71 270.7, 277.3 270.26 M309.3 238.26 C308.99 263.22, 302.53 270.9, 277.3 270.26 M277.3 270.26 C229.6 271.99, 176.59 272.74, 32 270.26 M277.3 270.26 C190.84 271.95, 103.03 273.89, 32 270.26 M32 270.26 C7.14 271.87, 0.92 263.55, 0 238.26 M32 270.26 C6.16 269.66, -2.25 257.74, 0 238.26 M0 238.26 C3.5 163.61, 0.61 88.32, 0 32 M0 238.26 C3.04 195.59, 0.07 153.09, 0 32 M0 32 C1.87 13.66, 7.33 -0.63, 32 0 M0 32 C-2.34 14.56, 6.22 2.75, 32 0" stroke="#343a40" stroke-width="4" fill="none"></path></g><g transform="translate(1072.0384542802487 1483.6944373612196) rotate(0 111.04032135009766 65.05068762660176)"><text x="111.04032135009766" y="0" font-family="Virgil, Segoe UI Emoji" font-size="26.02027505064078px" fill="#343a40" text-anchor="middle" style="white-space: pre;" direction="ltr" dominant-baseline="text-before-edge">Chat Gpt </text><text x="111.04032135009766" y="32.52534381330098" font-family="Virgil, Segoe UI Emoji" font-size="26.02027505064078px" fill="#343a40" text-anchor="middle" style="white-space: pre;" direction="ltr" dominant-baseline="text-before-edge">Api</text><text x="111.04032135009766" y="65.05068762660196" font-family="Virgil, Segoe UI Emoji" font-size="26.02027505064078px" fill="#343a40" text-anchor="middle" style="white-space: pre;" direction="ltr" dominant-baseline="text-before-edge">{returns result} </text><text x="111.04032135009766" y="97.57603143990293" font-family="Virgil, Segoe UI Emoji" font-size="26.02027505064078px" fill="#343a40" text-anchor="middle" style="white-space: pre;" direction="ltr" dominant-baseline="text-before-edge"></text></g><g stroke-linecap="round" transform="translate(715.6720514253909 641.7236493318742) rotate(0 176.42084193037954 186.93099547226893)"><path d="M7.86 8.16 C7.86 8.16, 7.86 8.16, 7.86 8.16 M7.86 8.16 C7.86 8.16, 7.86 8.16, 7.86 8.16 M4.85 36.01 C13.63 25.21, 19.12 20.39, 34.37 2.05 M4.85 36.01 C12.18 28.55, 18.89 19.39, 34.37 2.05 M4.46 60.85 C19.68 42.63, 31.21 31.09, 55.63 1.98 M4.46 60.85 C15.63 46.12, 29.67 29.2, 55.63 1.98 M4.72 84.93 C20.17 63.35, 38.75 50.85, 76.89 1.91 M4.72 84.93 C27.91 59.24, 50.4 31.17, 76.89 1.91 M4.99 109.01 C36.48 77.66, 67.77 39.86, 98.15 1.85 M4.99 109.01 C35.58 72.45, 69.04 34.21, 98.15 1.85 M4.6 133.85 C23.09 107.34, 50.96 83.48, 119.41 1.78 M4.6 133.85 C48.02 83.37, 88.99 35.64, 119.41 1.78 M4.87 157.93 C55.85 98.66, 115.34 36.14, 140.67 1.71 M4.87 157.93 C44.92 112.13, 88.74 63.19, 140.67 1.71 M4.48 182.77 C47.39 140.33, 84.52 95.1, 161.28 2.39 M4.48 182.77 C52.2 127.73, 97.65 75.06, 161.28 2.39 M4.74 206.85 C42.44 161.83, 77.99 120.23, 182.54 2.32 M4.74 206.85 C57.59 146.79, 108.94 87.04, 182.54 2.32 M5.01 230.93 C70.9 157.84, 132.64 87.48, 203.8 2.26 M5.01 230.93 C66.8 159.39, 129.89 86.22, 203.8 2.26 M4.62 255.77 C67.91 186.67, 123.42 118.84, 225.06 2.19 M4.62 255.77 C89.93 155.78, 173.7 55.71, 225.06 2.19 M4.89 279.85 C96.38 182.85, 182.48 79.78, 246.32 2.12 M4.89 279.85 C59.34 214.57, 114.49 152.31, 246.32 2.12 M4.5 304.69 C99.61 197.5, 195.36 86.94, 267.58 2.05 M4.5 304.69 C106.72 187.28, 206.87 72.06, 267.58 2.05 M4.76 328.77 C110.11 205.48, 218.76 80.09, 288.84 1.98 M4.76 328.77 C86.66 236.18, 169.08 142.05, 288.84 1.98 M2.4 355.87 C67.29 285.45, 127.68 213.26, 310.1 1.91 M2.4 355.87 C71.71 279.53, 139.06 202.14, 310.1 1.91 M11.86 369.38 C126.97 238.43, 239.69 108.04, 327.42 6.37 M11.86 369.38 C121.83 243.54, 233.05 114.03, 327.42 6.37 M25.24 378.37 C101.27 293.28, 175.99 205.75, 346.06 9.32 M25.24 378.37 C132.4 251.07, 243.41 122.87, 346.06 9.32 M42.57 382.83 C146.26 258.58, 252.79 136.28, 356.16 22.08 M42.57 382.83 C147.24 263.13, 251.7 143.52, 356.16 22.08 M63.83 382.76 C130.75 308.18, 197.33 229.6, 361.68 40.12 M63.83 382.76 C172.88 260.22, 277.65 138, 361.68 40.12 M85.09 382.69 C184.92 262.88, 285.92 148.49, 361.94 64.21 M85.09 382.69 C182.04 272.36, 278.31 161.37, 361.94 64.21 M106.35 382.62 C173.6 306.02, 240.87 233.5, 362.21 88.29 M106.35 382.62 C199.18 277.61, 291.48 170.57, 362.21 88.29 M126.95 383.31 C194.8 304.17, 266.6 220.39, 361.82 113.12 M126.95 383.31 C212.06 286.93, 296.01 190.53, 361.82 113.12 M148.21 383.24 C220.36 299.51, 293.35 215.24, 362.09 137.21 M148.21 383.24 C190.92 330.5, 236.7 275.78, 362.09 137.21 M169.47 383.17 C221.42 327.85, 268.59 273.16, 361.7 162.04 M169.47 383.17 C237.23 309.97, 302.76 234.21, 361.7 162.04 M190.73 383.1 C261.1 302.93, 327.78 227.08, 361.96 186.12 M190.73 383.1 C239.32 328.59, 287.14 273.78, 361.96 186.12 M211.99 383.03 C261.45 325.21, 312.34 273.34, 361.57 210.96 M211.99 383.03 C255.17 328.26, 300.75 273.88, 361.57 210.96 M233.25 382.97 C271.23 340.93, 302.72 300.59, 361.84 235.04 M233.25 382.97 C265.67 341.53, 298.5 304.55, 361.84 235.04 M254.51 382.9 C287.45 352, 311.28 320.15, 362.11 259.12 M254.51 382.9 C286.23 348.38, 321.65 311.88, 362.11 259.12 M275.77 382.83 C303.96 347.35, 338.06 308.91, 361.72 283.96 M275.77 382.83 C309.48 346.75, 343.35 307.29, 361.72 283.96 M297.03 382.76 C307.91 364.97, 326.04 349.69, 361.98 308.04 M297.03 382.76 C320.32 352.07, 348.07 322.43, 361.98 308.04 M323.54 376.65 C331.96 366.99, 346.97 354.09, 353.06 342.69 M323.54 376.65 C335.68 363.11, 344.97 348.21, 353.06 342.69" stroke="#7950f2" stroke-width="2" fill="none"></path><path d="M32 0 M32 0 C141.15 3.51, 252.81 3.28, 320.84 0 M32 0 C107.77 1.79, 182.12 2.31, 320.84 0 M320.84 0 C339.14 2.63, 352.1 13.39, 352.84 32 M320.84 0 C346.38 0.03, 357.17 15.21, 352.84 32 M352.84 32 C355.38 124.27, 356.96 214.85, 352.84 341.86 M352.84 32 C349.14 133.01, 349.39 232.88, 352.84 341.86 M352.84 341.86 C356.43 362.43, 338.88 375.47, 320.84 373.86 M352.84 341.86 C354.22 361, 345.08 374.86, 320.84 373.86 M320.84 373.86 C254.73 374.82, 187.55 377.01, 32 373.86 M320.84 373.86 C209.16 374.12, 100.51 374.27, 32 373.86 M32 373.86 C12.84 370.32, -0.32 366.98, 0 341.86 M32 373.86 C7.74 373.14, 1.2 360.82, 0 341.86 M0 341.86 C4.85 246.03, 1.03 153.54, 0 32 M0 341.86 C2.66 261.03, 2.54 178.54, 0 32 M0 32 C2.08 10.21, 13.73 2.56, 32 0 M0 32 C4.11 8.96, 12.4 -4.17, 32 0" stroke="#343a40" stroke-width="4" fill="none"></path></g><g stroke-linecap="round" transform="translate(1214.1547976595746 638.7207875948188) rotate(0 174.91934233075267 187.68174527208248)"><path d="M7.86 8.16 C7.86 8.16, 7.86 8.16, 7.86 8.16 M7.86 8.16 C7.86 8.16, 7.86 8.16, 7.86 8.16 M4.85 36.01 C12.47 28.71, 18.62 17.66, 34.37 2.05 M4.85 36.01 C16.22 23.15, 25.37 11.81, 34.37 2.05 M4.46 60.85 C18.7 45.02, 34.69 24.41, 55.63 1.98 M4.46 60.85 C15.69 46.16, 30.01 32.75, 55.63 1.98 M4.72 84.93 C28.15 61.53, 50.47 30.46, 76.89 1.91 M4.72 84.93 C32.71 52.29, 56.48 23.47, 76.89 1.91 M4.99 109.01 C24.29 81.82, 54.94 55.7, 98.15 1.85 M4.99 109.01 C37.69 65.8, 74.9 25.58, 98.15 1.85 M4.6 133.85 C24.13 106.33, 47.87 77.91, 119.41 1.78 M4.6 133.85 C45.41 89.56, 86.69 43.93, 119.41 1.78 M4.87 157.93 C42 114.59, 82.36 71.94, 140.67 1.71 M4.87 157.93 C45.09 112.04, 89.9 63.97, 140.67 1.71 M4.48 182.77 C51.8 127.61, 97.23 74.72, 161.28 2.39 M4.48 182.77 C59.35 121.12, 107.21 62.44, 161.28 2.39 M4.74 206.85 C59.9 138.93, 115.07 67.99, 182.54 2.32 M4.74 206.85 C53.71 152.26, 101.9 99.05, 182.54 2.32 M5.01 230.93 C67.83 157.32, 135.52 82.33, 203.8 2.26 M5.01 230.93 C46.87 177.97, 89.25 128.44, 203.8 2.26 M4.62 255.77 C59.47 190.27, 117.9 129.77, 225.06 2.19 M4.62 255.77 C74.36 175.89, 143.13 99.98, 225.06 2.19 M4.89 279.85 C91.51 180.65, 178.88 81.43, 246.32 2.12 M4.89 279.85 C70.55 203.68, 136.04 125.08, 246.32 2.12 M4.5 304.69 C80.58 215.12, 159.16 126.18, 267.58 2.05 M4.5 304.69 C87.31 207.36, 173.56 111.56, 267.58 2.05 M4.76 328.77 C107.78 212.33, 211.14 94.4, 288.84 1.98 M4.76 328.77 C80.13 239.68, 157 149.34, 288.84 1.98 M7.65 349.83 C97.09 251.55, 184.32 150.69, 310.1 1.91 M7.65 349.83 C71.93 274.09, 138.37 198.71, 310.1 1.91 M11.2 370.14 C87.56 281.71, 164.98 193.92, 326.76 7.12 M11.2 370.14 C108.46 258.06, 205.94 145.83, 326.76 7.12 M24.59 379.13 C136.54 250.07, 244.93 125.15, 344.74 10.83 M24.59 379.13 C135.9 249.09, 246.36 121.6, 344.74 10.83 M41.91 383.59 C105.47 310.98, 172.35 235.39, 354.85 23.59 M41.91 383.59 C107.76 307.02, 174.9 230.32, 354.85 23.59 M63.17 383.52 C169.81 260.71, 275.5 137.28, 360.37 41.63 M63.17 383.52 C142.46 292.38, 222.26 200.78, 360.37 41.63 M84.43 383.45 C141.88 322.43, 198.16 258.02, 360.63 65.72 M84.43 383.45 C181.03 271.76, 277.98 161.07, 360.63 65.72 M105.04 384.13 C169.74 307.12, 236.95 231.58, 360.9 89.8 M105.04 384.13 C204.55 271.59, 303.8 156.82, 360.9 89.8 M126.3 384.07 C192.31 304.36, 263.87 220.15, 360.51 114.63 M126.3 384.07 C178.55 328.45, 226.85 271.2, 360.51 114.63 M147.56 384 C235.59 283.86, 322.82 185.45, 360.78 138.72 M147.56 384 C219.04 300.11, 287.54 220.45, 360.78 138.72 M168.82 383.93 C223.72 325.11, 277.86 266.9, 360.39 163.55 M168.82 383.93 C247.26 296.57, 322.09 211.11, 360.39 163.55 M190.08 383.86 C252.27 316.01, 310.29 250.55, 360.65 187.63 M190.08 383.86 C247.27 313.87, 309.66 246.88, 360.65 187.63 M211.34 383.79 C246.88 343.54, 281.38 304.59, 360.92 211.72 M211.34 383.79 C249.54 338.97, 286.14 293.98, 360.92 211.72 M232.6 383.72 C266.61 343.74, 306.53 298.29, 360.53 236.55 M232.6 383.72 C278.5 335.95, 320.62 285.89, 360.53 236.55 M253.86 383.65 C275.12 358.82, 294.83 335.04, 360.79 260.63 M253.86 383.65 C286.51 347.29, 317.21 314.14, 360.79 260.63 M275.12 383.58 C298.5 361.34, 319.81 341.12, 360.4 285.47 M275.12 383.58 C305.31 343.62, 340.22 306.32, 360.4 285.47 M296.38 383.51 C324.26 354.85, 342.64 332.23, 360.67 309.55 M296.38 383.51 C311.51 367.62, 326.52 346.59, 360.67 309.55 M321.57 378.92 C332.42 372.65, 337.21 364.14, 351.1 344.95 M321.57 378.92 C329.97 371.97, 337.44 361.64, 351.1 344.95" stroke="#40c057" stroke-width="2" fill="none"></path><path d="M32 0 M32 0 C125.66 3.12, 227.24 -2.27, 317.84 0 M32 0 C114.93 -2.35, 200.76 -3.73, 317.84 0 M317.84 0 C341.34 3, 350.66 14.07, 349.84 32 M317.84 0 C339.37 -1.48, 349.18 9.94, 349.84 32 M349.84 32 C352.44 136.35, 347.98 237.16, 349.84 343.36 M349.84 32 C353.29 101.06, 353.66 169.55, 349.84 343.36 M349.84 343.36 C348.87 362.67, 340.01 379.29, 317.84 375.36 M349.84 343.36 C349.26 368.94, 337.2 377.93, 317.84 375.36 M317.84 375.36 C225.31 377.41, 138.26 376.75, 32 375.36 M317.84 375.36 C246.81 380.41, 178.55 379.74, 32 375.36 M32 375.36 C9.13 378.03, 2.28 365.87, 0 343.36 M32 375.36 C12.33 378.7, -0.45 363.65, 0 343.36 M0 343.36 C2.17 270.33, 3.9 201.84, 0 32 M0 343.36 C1.82 239.81, 3.36 135.56, 0 32 M0 32 C3.24 13.43, 14.37 2.65, 32 0 M0 32 C-1 9.45, 8.11 1.02, 32 0" stroke="#343a40" stroke-width="4" fill="none"></path></g><g transform="translate(719.4813938549466 475.71337576747646) rotate(0 409.48553466796875 22.122737816685913)"><text x="0" y="0" font-family="Helvetica, Segoe UI Emoji" font-size="38.474326637715265px" fill="#343a40" text-anchor="start" style="white-space: pre;" direction="ltr" dominant-baseline="text-before-edge">memories - an Ai powered mental health helper </text></g><g transform="translate(1202.8938943178716 578.6625906183381) rotate(0 91.89422607421875 15.096967145799681)"><text x="0" y="0" font-family="Helvetica, Segoe UI Emoji" font-size="26.25559503617281px" fill="#343a40" text-anchor="start" style="white-space: pre;" direction="ltr" dominant-baseline="text-before-edge">memories says </text></g><g mask="url(#mask-J0OIVb4vehA75CsB-F6Ft)" stroke-linecap="round"><g transform="translate(722.6990646796314 1027.972633952283) rotate(0 158.19041540254784 189.77146914322702)"><path d="M-2.67 2.45 C50.93 65.16, 265.79 313.2, 319.05 375.97 M1.08 1.31 C54.71 64.31, 265.57 314.7, 317.89 378.23" stroke="#343a40" stroke-width="4" fill="none"></path></g><g transform="translate(722.6990646796314 1027.972633952283) rotate(0 158.19041540254784 189.77146914322702)"><path d="M295.45 365.99 C293.72 366.56, 303.58 372.67, 315.11 379.77 M293.45 363.56 C302.62 368.27, 309.41 373.2, 317.57 378.77" stroke="#343a40" stroke-width="4" fill="none"></path></g><g transform="translate(722.6990646796314 1027.972633952283) rotate(0 158.19041540254784 189.77146914322702)"><path d="M311.21 352.84 C306.16 355.86, 312.72 364.73, 315.11 379.77 M309.21 350.42 C312.7 359.92, 313.93 369.47, 317.57 378.77" stroke="#343a40" stroke-width="4" fill="none"></path></g></g><mask id="mask-J0OIVb4vehA75CsB-F6Ft"><rect x="0" y="0" fill="#fff" width="1139.7672664302406" height="1506.4824710791054"></rect><rect x="765.241199307377" y="1172.2275525156947" fill="#000" width="231.9839324951172" height="90" opacity="1"></rect></mask><g transform="translate(765.2411993073774 1172.2275525156947) rotate(0 115.64828077480206 45.51655057981543)"><text x="115.9919662475586" y="0" font-family="Virgil, Segoe UI Emoji" font-size="36px" fill="#343a40" text-anchor="middle" style="white-space: pre;" direction="ltr" dominant-baseline="text-before-edge">fetch data </text><text x="115.9919662475586" y="45" font-family="Virgil, Segoe UI Emoji" font-size="36px" fill="#343a40" text-anchor="middle" style="white-space: pre;" direction="ltr" dominant-baseline="text-before-edge">{onSubmit()} </text></g><g mask="url(#mask-Di8ztW5IjHclRrPbN9usV)" stroke-linecap="round"><g transform="translate(1231.0533882358052 1397.473679674642) rotate(0 35.285886794933276 -185.1910903805674)"><path d="M-0.02 -2.57 C12.26 -64.24, 61.8 -310.67, 74.04 -372.58 M-3.47 2.2 C8.57 -58.76, 60.21 -306.66, 72.85 -368.99" stroke="#343a40" stroke-width="4" fill="none"></path></g><g transform="translate(1231.0533882358052 1397.473679674642) rotate(0 35.285886794933276 -185.1910903805674)"><path d="M73.54 -336.57 C76.28 -346.76, 72.79 -358.52, 76.37 -372.2 M76.45 -337.98 C76.56 -350.03, 74.47 -360.5, 72.65 -369.45" stroke="#343a40" stroke-width="4" fill="none"></path></g><g transform="translate(1231.0533882358052 1397.473679674642) rotate(0 35.285886794933276 -185.1910903805674)"><path d="M53.44 -340.71 C62.41 -349.6, 65.23 -360.06, 76.37 -372.2 M56.35 -342.11 C64.15 -352.74, 69.74 -361.63, 72.65 -369.45" stroke="#343a40" stroke-width="4" fill="none"></path></g></g><mask id="mask-Di8ztW5IjHclRrPbN9usV"><rect x="0" y="0" fill="#fff" width="1403.1789551648046" height="1869.9775871340562"></rect><rect x="1184.622206551379" y="1121.2217259449353" fill="#000" width="164.98793029785156" height="180" opacity="1"></rect></mask><g transform="translate(1184.6222065513793 1121.2217259449353) rotate(0 81.71706847935934 91.06086334913925)"><text x="82.49396514892578" y="0" font-family="Virgil, Segoe UI Emoji" font-size="36px" fill="#343a40" text-anchor="middle" style="white-space: pre;" direction="ltr" dominant-baseline="text-before-edge">responce </text><text x="82.49396514892578" y="45" font-family="Virgil, Segoe UI Emoji" font-size="36px" fill="#343a40" text-anchor="middle" style="white-space: pre;" direction="ltr" dominant-baseline="text-before-edge">data</text><text x="82.49396514892578" y="90" font-family="Virgil, Segoe UI Emoji" font-size="36px" fill="#343a40" text-anchor="middle" style="white-space: pre;" direction="ltr" dominant-baseline="text-before-edge">{data : </text><text x="82.49396514892578" y="135" font-family="Virgil, Segoe UI Emoji" font-size="36px" fill="#343a40" text-anchor="middle" style="white-space: pre;" direction="ltr" dominant-baseline="text-before-edge">result} </text></g><g stroke-linecap="round" transform="translate(728.2002830985828 371.492765246554) rotate(0 68.501133385603 20.199025351027558)"><path d="M2.69 2.34 C2.69 2.34, 2.69 2.34, 2.69 2.34 M2.69 2.34 C2.69 2.34, 2.69 2.34, 2.69 2.34 M9.52 18.87 C12.14 14.41, 15.65 10.45, 19.36 7.55 M9.52 18.87 C12.12 15.48, 15.81 14.23, 19.36 7.55 M9.78 42.95 C11.35 32.89, 18.4 30.81, 39.96 8.24 M9.78 42.95 C18.78 32.79, 29.92 20.37, 39.96 8.24 M30.39 43.64 C38.17 30.62, 47.09 21.66, 61.22 8.17 M30.39 43.64 C40.94 34.11, 50.52 24.49, 61.22 8.17 M51.65 43.57 C59.97 34.07, 61.85 26, 82.48 8.1 M51.65 43.57 C61.76 32.04, 71.07 21.22, 82.48 8.1 M72.91 43.5 C78.82 38.37, 88.41 27.29, 103.74 8.03 M72.91 43.5 C78.3 34.26, 85.3 28.85, 103.74 8.03 M94.17 43.43 C98.83 35.34, 114.52 26.45, 131.56 0.41 M94.17 43.43 C107.81 29.66, 121.64 11.47, 131.56 0.41 M115.43 43.36 C125.45 33.12, 129.9 20.95, 142.98 11.67 M115.43 43.36 C126.49 33.51, 134.07 20.38, 142.98 11.67 M5.4 39.52 C5.4 39.52, 5.4 39.52, 5.4 39.52 M5.4 39.52 C5.4 39.52, 5.4 39.52, 5.4 39.52 M30.23 39.91 C21.13 37.46, 12.78 24.15, 10.61 22.85 M30.23 39.91 C22.69 32.83, 17.87 27.43, 10.61 22.85 M55.07 40.3 C41.34 29.24, 23.25 14.19, 6.77 -1.69 M55.07 40.3 C38.42 26.8, 25.52 15.37, 6.77 -1.69 M79.15 40.03 C60.04 22.63, 38.77 5.26, 20.28 -11.14 M79.15 40.03 C57.34 21.55, 35.51 4.42, 20.28 -11.14 M103.99 40.42 C92.28 24.42, 77.54 11.76, 44.37 -11.41 M103.99 40.42 C83.18 20.97, 67.03 7.44, 44.37 -11.41 M127.31 39.5 C113.4 31.45, 101.2 16.62, 69.2 -11.02 M127.31 39.5 C110.42 25.6, 93.83 6.98, 69.2 -11.02 M140.83 30.05 C124.16 14.25, 104.51 -0.54, 93.28 -11.28 M140.83 30.05 C124.82 15.74, 104.77 0.31, 93.28 -11.28" stroke="#ced4da" stroke-width="2" fill="none"></path><path d="M10.1 0 M10.1 0 C51.86 0.6, 97.77 -2.18, 126.9 0 M10.1 0 C36.83 -1.1, 65.5 -2.12, 126.9 0 M126.9 0 C133.76 0.38, 137.73 3.88, 137 10.1 M126.9 0 C131.84 -4.44, 139.19 -0.8, 137 10.1 M137 10.1 C139.73 15.08, 137.45 25.25, 137 30.3 M137 10.1 C138.78 13.26, 135.63 18.51, 137 30.3 M137 30.3 C133.85 34.41, 134.98 36.56, 126.9 40.4 M137 30.3 C136.12 39.99, 131.92 36.96, 126.9 40.4 M126.9 40.4 C88.62 37.8, 53.03 44.38, 10.1 40.4 M126.9 40.4 C90.99 41.09, 58.16 43.01, 10.1 40.4 M10.1 40.4 C-0.05 43.84, 0.2 35.65, 0 30.3 M10.1 40.4 C2.91 40.76, -1.83 36.97, 0 30.3 M0 30.3 C3.18 27.79, 3.02 15.49, 0 10.1 M0 30.3 C0.73 23.87, 1.34 21.38, 0 10.1 M0 10.1 C0.56 3.52, 6.93 -1.95, 10.1 0 M0 10.1 C1.88 4.94, 1.32 -4.27, 10.1 0" stroke="#343a40" stroke-width="4" fill="none"></path></g><g stroke-linecap="round" transform="translate(1316.6075616922842 378.5184957157344) rotate(0 91.33481771300012 18.442612834585816)"><path d="M2.45 2.13 C2.45 2.13, 2.45 2.13, 2.45 2.13 M2.45 2.13 C2.45 2.13, 2.45 2.13, 2.45 2.13 M9.94 17.91 C10.17 15.88, 17.72 12.78, 18.47 8.1 M9.94 17.91 C12.47 15.93, 13.77 13.32, 18.47 8.1 M10.86 41.24 C14.94 30.91, 24.03 22.29, 39.73 8.03 M10.86 41.24 C18.31 30.93, 29.39 18.29, 39.73 8.03 M32.12 41.17 C35.32 35.61, 41.59 24.01, 60.99 7.96 M32.12 41.17 C42.62 30.92, 50.59 18.96, 60.99 7.96 M53.38 41.1 C65.42 29.28, 74.35 16.92, 81.59 8.65 M53.38 41.1 C63.58 31.26, 72.23 22.92, 81.59 8.65 M73.98 41.79 C84.82 32.17, 96.04 18.13, 102.85 8.58 M73.98 41.79 C84.97 30.94, 95.76 19.3, 102.85 8.58 M95.24 41.72 C107.33 33.1, 114.37 14.97, 124.11 8.51 M95.24 41.72 C107.72 31.03, 118.67 15.66, 124.11 8.51 M116.5 41.65 C121.95 38.03, 125.78 27.65, 145.37 8.44 M116.5 41.65 C127.4 31.36, 138.38 18.58, 145.37 8.44 M137.76 41.58 C146.04 35.07, 150.67 24.92, 166.63 8.37 M137.76 41.58 C147.86 32.01, 155.7 21.28, 166.63 8.37 M159.03 41.51 C165.76 30.68, 177.19 25.26, 187.24 9.06 M159.03 41.51 C165.26 33.53, 169.94 25.82, 187.24 9.06 M5.39 36.48 C5.39 36.48, 5.39 36.48, 5.39 36.48 M5.39 36.48 C5.39 36.48, 5.39 36.48, 5.39 36.48 M29.47 36.22 C24.62 33.28, 17.72 24.71, 10.6 19.81 M29.47 36.22 C25.88 29.89, 21.04 28.19, 10.6 19.81 M54.3 36.61 C44.66 28.32, 29.67 9.95, 10.53 -1.45 M54.3 36.61 C38.25 22.88, 26.27 9.96, 10.53 -1.45 M78.39 36.34 C62.93 23.57, 48.48 10.62, 34.61 -1.71 M78.39 36.34 C65.89 27.23, 54.86 14.97, 34.61 -1.71 M103.22 36.73 C89.28 19.84, 70.32 9.55, 59.45 -1.32 M103.22 36.73 C85.78 19.71, 68.3 7.1, 59.45 -1.32 M127.3 36.46 C117.18 26.39, 110.86 23.67, 84.29 -0.93 M127.3 36.46 C114.91 26.06, 100.54 14.4, 84.29 -0.93 M152.14 36.85 C138.79 26.31, 118.62 13.53, 108.37 -1.2 M152.14 36.85 C139.22 24.37, 125.69 12.94, 108.37 -1.2 M174.71 35.27 C167.08 29.51, 149.6 14.4, 133.2 -0.81 M174.71 35.27 C162.42 27.71, 154.22 17.96, 133.2 -0.81 M187.47 25.17 C179.47 18.27, 166.89 5.22, 157.29 -1.08 M187.47 25.17 C179.3 15.46, 170.84 8, 157.29 -1.08" stroke="#7950f2" stroke-width="2" fill="none"></path><path d="M9.22 0 M9.22 0 C43.05 -6.54, 81.31 -4.8, 173.45 0 M9.22 0 C45.73 0.39, 78.87 3.09, 173.45 0 M173.45 0 C177.18 -1.52, 184.21 -0.92, 182.67 9.22 M173.45 0 C182.36 -1.16, 179.9 -0.71, 182.67 9.22 M182.67 9.22 C183.84 13.56, 183.18 18.33, 182.67 27.66 M182.67 9.22 C181.36 14.7, 182.13 20.53, 182.67 27.66 M182.67 27.66 C181.75 33.8, 176.82 36.57, 173.45 36.89 M182.67 27.66 C186.71 33.82, 178.9 38.69, 173.45 36.89 M173.45 36.89 C127.99 36.75, 86.64 34.06, 9.22 36.89 M173.45 36.89 C129.16 34.39, 81.43 33.69, 9.22 36.89 M9.22 36.89 C2.02 36.65, 0.4 30.3, 0 27.66 M9.22 36.89 C-1.26 35.87, -0.37 33.66, 0 27.66 M0 27.66 C-0.47 22.2, -3.03 20.28, 0 9.22 M0 27.66 C-0.48 20.93, 0.96 16.63, 0 9.22 M0 9.22 C1.57 1.99, 1.84 -3.43, 9.22 0 M0 9.22 C-3.61 1.09, 3.73 0.11, 9.22 0" stroke="#343a40" stroke-width="4" fill="none"></path></g><g transform="translate(995.1729346472218 285.4271850828718) rotate(0 97.44879150390625 35.18005568074295)"><text x="0" y="0" font-family="Virgil, Segoe UI Emoji" font-size="56.28808908918804px" fill="#343a40" text-anchor="start" style="white-space: pre;" direction="ltr" dominant-baseline="text-before-edge">Next.js</text></g><g stroke-linecap="round"><g transform="translate(635.9872993290667 1325.2392342888343) rotate(0 525.6777633346717 8.587663435111153)"><path d="M-1.67 -1.17 C174.08 1.55, 877.42 15.35, 1053.03 18.35" stroke="#c92a2a" stroke-width="4.5" fill="none" stroke-dasharray="8 12"></path></g></g><mask></mask><g transform="translate(1521.2326349857547 1276.9372066576707) rotate(0 80.38797760009766 22.5)"><text x="0" y="0" font-family="Virgil, Segoe UI Emoji" font-size="36px" fill="#c92a2a" text-anchor="start" style="white-space: pre;" direction="ltr" dominant-baseline="text-before-edge">Backend </text></g><g stroke-linecap="round" transform="translate(1465.1470188405708 1418.5923823904095) rotate(0 239.14646307219914 237.9231702712932)"><path d="M373.21 41.04 C390.87 48.42, 406.85 65.08, 420.24 79.9 C433.62 94.72, 444.7 111.88, 453.52 129.96 C462.34 148.05, 469.35 169.28, 473.16 188.4 C476.97 207.52, 477.17 225.42, 476.4 244.7 C475.64 263.97, 473.64 285.05, 468.56 304.05 C463.48 323.06, 456.25 341.5, 445.92 358.72 C435.6 375.95, 420.71 393.43, 406.61 407.39 C392.51 421.34, 378.4 432.79, 361.32 442.46 C344.23 452.14, 323.15 460.17, 304.09 465.46 C285.04 470.75, 266.54 473.43, 246.98 474.2 C227.41 474.97, 205.98 474.25, 186.69 470.08 C167.41 465.92, 149.27 457.97, 131.27 449.21 C113.27 440.45, 93.99 430.75, 78.7 417.5 C63.42 404.26, 50.06 386.57, 39.57 369.75 C29.08 352.93, 22.5 334.97, 15.76 316.6 C9.02 298.22, 1.37 278.66, -0.86 259.49 C-3.1 240.32, -1.4 221.06, 2.36 201.59 C6.11 182.12, 13.43 161.27, 21.66 142.68 C29.9 124.09, 39.91 105.6, 51.78 90.05 C63.64 74.5, 77.24 61.1, 92.84 49.37 C108.45 37.64, 127.31 27.19, 145.42 19.67 C163.53 12.14, 181.8 7.23, 201.51 4.23 C221.22 1.22, 243.91 0.2, 263.68 1.64 C283.45 3.07, 297.49 3.35, 320.11 12.83 C342.73 22.31, 383.46 46.35, 399.39 58.52 C415.33 70.69, 418.93 82.47, 415.71 85.85" stroke="#364fc7" stroke-width="4.5" fill="none" stroke-dasharray="8 12"></path></g><g transform="translate(1528.7563406171646 1552.538912363817) rotate(0 168.3539276123047 45)"><text x="0" y="0" font-family="Virgil, Segoe UI Emoji" font-size="36px" fill="#364fc7" text-anchor="start" style="white-space: pre;" direction="ltr" dominant-baseline="text-before-edge">GPT </text><text x="0" y="45" font-family="Virgil, Segoe UI Emoji" font-size="36px" fill="#364fc7" text-anchor="start" style="white-space: pre;" direction="ltr" dominant-baseline="text-before-edge">{text-davinci-003}</text></g><g stroke-linecap="round"><g transform="translate(1345.092982968188 1700.912965357321) rotate(0 61.90280210203855 11.9454181032429)"><path d="M-0.5 -2.11 C20.26 2.13, 103.33 21.05, 124.31 26" stroke="#364fc7" stroke-width="4.5" fill="none" stroke-dasharray="8 12"></path></g><g transform="translate(1345.092982968188 1700.912965357321) rotate(0 61.90280210203855 11.9454181032429)"><path d="M91.52 30.19 C101.07 30.77, 112.02 23.99, 121.06 25.44" stroke="#364fc7" stroke-width="4.5" fill="none"></path></g><g transform="translate(1345.092982968188 1700.912965357321) rotate(0 61.90280210203855 11.9454181032429)"><path d="M96.14 10.2 C104.43 16.59, 114.03 15.65, 121.06 25.44" stroke="#364fc7" stroke-width="4.5" fill="none"></path></g></g><mask></mask><g stroke-linecap="round"><g transform="translate(1488.777644581088 1517.858974816435) rotate(0 -69.00727741348874 -11.129794867256805)"><path d="M-1.31 0.13 C-23.72 -3.26, -113.87 -18.52, -136.71 -22.39" stroke="#364fc7" stroke-width="4.5" fill="none" stroke-dasharray="8 12"></path></g><g transform="translate(1488.777644581088 1517.858974816435) rotate(0 -69.00727741348874 -11.129794867256805)"><path d="M-107.02 -28.59 C-115.93 -30, -123.42 -22.41, -136.07 -26.32" stroke="#364fc7" stroke-width="4.5" fill="none"></path></g><g transform="translate(1488.777644581088 1517.858974816435) rotate(0 -69.00727741348874 -11.129794867256805)"><path d="M-110.44 -8.36 C-118.29 -14.2, -125.03 -11.08, -136.07 -26.32" stroke="#364fc7" stroke-width="4.5" fill="none"></path></g></g><mask></mask><g stroke-linecap="round" transform="translate(10 10) rotate(0 1283.5873694858392 988.2124797171573)"><path d="M32 0 M32 0 C891.52 9.03, 1748.16 6.64, 2535.17 0 M2535.17 0 C2553.79 2.29, 2570 8.87, 2567.17 32 M2567.17 32 C2581.2 493.8, 2581.21 956.04, 2567.17 1944.42 M2567.17 1944.42 C2566.79 1968.46, 2555.75 1974.6, 2535.17 1976.42 M2535.17 1976.42 C1764.93 1957.77, 992.96 1957.86, 32 1976.42 M32 1976.42 C7.88 1975.76, -1.22 1969.44, 0 1944.42 M0 1944.42 C15.14 1455.04, 14.54 963.35, 0 32 M0 32 C-3.6 8.25, 12.9 -2.57, 32 0" stroke="#495057" stroke-width="4.5" fill="none" stroke-dasharray="8 12"></path></g><g transform="translate(1798.5828050599473 241.39956033255294) rotate(0 308.10784912109375 45.63998095709849)"><text x="0" y="0" font-family="Virgil, Segoe UI Emoji" font-size="73.02396953135757px" fill="#495057" text-anchor="start" style="white-space: pre;" direction="ltr" dominant-baseline="text-before-edge">Deploy on vercel </text></g><g transform="translate(1986.4248348151016 331.23705282414994) rotate(0 99.43963623046875 87.07724760759811)"><text x="0" y="0" font-family="Virgil, Segoe UI Emoji" font-size="69.6617980860782px" fill="#495057" text-anchor="start" style="white-space: pre;" direction="ltr" dominant-baseline="text-before-edge">  + </text><text x="0" y="87.07724760759776" font-family="Virgil, Segoe UI Emoji" font-size="69.6617980860782px" fill="#495057" text-anchor="start" style="white-space: pre;" direction="ltr" dominant-baseline="text-before-edge">github</text></g></svg>